<?xml version="1.0" encoding="UTF-8" standalone="no"?>
<!DOCTYPE svg PUBLIC "-//W3C//DTD SVG 1.1//EN"
 "http://www.w3.org/Graphics/SVG/1.1/DTD/svg11.dtd">
<!-- Generated by graphviz version 2.26.3 (20100126.1600)
 -->
<!-- Title: models_diagram Pages: 1 -->
<svg width="1208pt" height="1280pt"
 viewBox="0.00 0.00 1208.00 1280.00" xmlns="http://www.w3.org/2000/svg" xmlns:xlink="http://www.w3.org/1999/xlink">
<g id="graph1" class="graph" transform="scale(1 1) rotate(0) translate(4 1276)">
<title>models_diagram</title>
<polygon fill="white" stroke="white" points="-4,5 -4,-1276 1205,-1276 1205,5 -4,5"/>
<!-- _diagram_info -->
<g id="node1" class="node"><title>_diagram_info</title>
<text text-anchor="start" x="65" y="-1255.8" font-family="Times Roman,serif" font-size="13.00">Models diagram</text>
<text text-anchor="start" x="65" y="-1238.8" font-family="Times Roman,serif" font-size="13.00">Date: Jun 22 2012 &#45; 13:49</text>
<text text-anchor="start" x="65" y="-1221.8" font-family="Times Roman,serif" font-size="13.00">Migration version: 20120621084745</text>
<text text-anchor="start" x="65" y="-1204.8" font-family="Times Roman,serif" font-size="13.00">Generated by RailRoady 1.0.7</text>
<text text-anchor="start" x="65" y="-1187.8" font-family="Times Roman,serif" font-size="13.00">http://railroady.prestonlee.com</text>
</g>
<!-- Activity -->
<g id="node2" class="node"><title>Activity</title>
<polyline fill="none" stroke="black" points="225.5,-201 366.5,-201 "/>
<path fill="none" stroke="black" d="M366.5,-201C372.5,-201 378.5,-207 378.5,-213"/>
<polyline fill="none" stroke="black" points="378.5,-213 378.5,-331 "/>
<path fill="none" stroke="black" d="M378.5,-331C378.5,-337 372.5,-343 366.5,-343"/>
<polyline fill="none" stroke="black" points="366.5,-343 225.5,-343 "/>
<path fill="none" stroke="black" d="M225.5,-343C219.5,-343 213.5,-337 213.5,-331"/>
<polyline fill="none" stroke="black" points="213.5,-331 213.5,-213 "/>
<path fill="none" stroke="black" d="M213.5,-213C213.5,-207 219.5,-201 225.5,-201"/>
<text text-anchor="middle" x="296" y="-326.4" font-family="Times Roman,serif" font-size="14.00">Activity</text>
<polyline fill="none" stroke="black" points="213.5,-317 378.5,-317 "/>
<text text-anchor="start" x="221.5" y="-300.4" font-family="Times Roman,serif" font-size="14.00">title :string</text>
<text text-anchor="start" x="221.5" y="-282.4" font-family="Times Roman,serif" font-size="14.00">description :text</text>
<text text-anchor="start" x="221.5" y="-264.4" font-family="Times Roman,serif" font-size="14.00">created_at :datetime</text>
<text text-anchor="start" x="221.5" y="-246.4" font-family="Times Roman,serif" font-size="14.00">updated_at :datetime</text>
<text text-anchor="start" x="221.5" y="-228.4" font-family="Times Roman,serif" font-size="14.00">file :string</text>
<text text-anchor="start" x="221.5" y="-210.4" font-family="Times Roman,serif" font-size="14.00">done :boolean</text>
</g>
<!-- Document -->
<g id="node10" class="node"><title>Document</title>
<polyline fill="none" stroke="black" points="12,-28 188,-28 "/>
<path fill="none" stroke="black" d="M188,-28C194,-28 200,-34 200,-40"/>
<polyline fill="none" stroke="black" points="200,-40 200,-122 "/>
<path fill="none" stroke="black" d="M200,-122C200,-128 194,-134 188,-134"/>
<polyline fill="none" stroke="black" points="188,-134 12,-134 "/>
<path fill="none" stroke="black" d="M12,-134C6,-134 0,-128 0,-122"/>
<polyline fill="none" stroke="black" points="0,-122 0,-40 "/>
<path fill="none" stroke="black" d="M0,-40C0,-34 6,-28 12,-28"/>
<text text-anchor="middle" x="100" y="-117.4" font-family="Times Roman,serif" font-size="14.00">Document</text>
<polyline fill="none" stroke="black" points="0,-108 200,-108 "/>
<text text-anchor="start" x="8" y="-91.4" font-family="Times Roman,serif" font-size="14.00">created_at :datetime</text>
<text text-anchor="start" x="8" y="-73.4" font-family="Times Roman,serif" font-size="14.00">updated_at :datetime</text>
<text text-anchor="start" x="8" y="-55.4" font-family="Times Roman,serif" font-size="14.00">documentable_type :string</text>
<text text-anchor="start" x="8" y="-37.4" font-family="Times Roman,serif" font-size="14.00">body :text</text>
</g>
<!-- Activity&#45;&gt;Document -->
<g id="edge6" class="edge"><title>Activity&#45;&gt;Document</title>
<path fill="none" stroke="#17bcfa" d="M217.141,-195.153C198.313,-176.805 178.503,-157.5 160.641,-140.094"/>
<ellipse fill="none" stroke="#17bcfa" cx="220.152" cy="-198.087" rx="4.00002" ry="4.00002"/>
<ellipse fill="#17bcfa" stroke="#17bcfa" cx="157.527" cy="-137.059" rx="4.00002" ry="4.00002"/>
</g>
<!-- Event -->
<g id="node13" class="node"><title>Event</title>
<polyline fill="none" stroke="black" points="604,-1 752,-1 "/>
<path fill="none" stroke="black" d="M752,-1C758,-1 764,-7 764,-13"/>
<polyline fill="none" stroke="black" points="764,-13 764,-149 "/>
<path fill="none" stroke="black" d="M764,-149C764,-155 758,-161 752,-161"/>
<polyline fill="none" stroke="black" points="752,-161 604,-161 "/>
<path fill="none" stroke="black" d="M604,-161C598,-161 592,-155 592,-149"/>
<polyline fill="none" stroke="black" points="592,-149 592,-13 "/>
<path fill="none" stroke="black" d="M592,-13C592,-7 598,-1 604,-1"/>
<text text-anchor="middle" x="678" y="-144.4" font-family="Times Roman,serif" font-size="14.00">Event</text>
<polyline fill="none" stroke="black" points="592,-135 764,-135 "/>
<text text-anchor="start" x="600" y="-118.4" font-family="Times Roman,serif" font-size="14.00">name :string</text>
<text text-anchor="start" x="600" y="-100.4" font-family="Times Roman,serif" font-size="14.00">start_at :date</text>
<text text-anchor="start" x="600" y="-82.4" font-family="Times Roman,serif" font-size="14.00">end_at :date</text>
<text text-anchor="start" x="600" y="-64.4" font-family="Times Roman,serif" font-size="14.00">all_day :boolean</text>
<text text-anchor="start" x="600" y="-46.4" font-family="Times Roman,serif" font-size="14.00">eventable_type :string</text>
<text text-anchor="start" x="600" y="-28.4" font-family="Times Roman,serif" font-size="14.00">created_at :datetime</text>
<text text-anchor="start" x="600" y="-10.4" font-family="Times Roman,serif" font-size="14.00">updated_at :datetime</text>
</g>
<!-- Activity&#45;&gt;Event -->
<g id="edge4" class="edge"><title>Activity&#45;&gt;Event</title>
<path fill="none" stroke="#b1a2b6" d="M385.335,-201.571C386.224,-201.04 387.112,-200.516 388,-200 450.358,-163.738 525.886,-133.125 584.229,-112.032"/>
<ellipse fill="none" stroke="#b1a2b6" cx="381.921" cy="-203.677" rx="4.00002" ry="4.00002"/>
<ellipse fill="#b1a2b6" stroke="#b1a2b6" cx="588.216" cy="-110.6" rx="4.00001" ry="4.00001"/>
</g>
<!-- Attachment -->
<g id="node16" class="node"><title>Attachment</title>
<polyline fill="none" stroke="black" points="230,-10 436,-10 "/>
<path fill="none" stroke="black" d="M436,-10C442,-10 448,-16 448,-22"/>
<polyline fill="none" stroke="black" points="448,-22 448,-140 "/>
<path fill="none" stroke="black" d="M448,-140C448,-146 442,-152 436,-152"/>
<polyline fill="none" stroke="black" points="436,-152 230,-152 "/>
<path fill="none" stroke="black" d="M230,-152C224,-152 218,-146 218,-140"/>
<polyline fill="none" stroke="black" points="218,-140 218,-22 "/>
<path fill="none" stroke="black" d="M218,-22C218,-16 224,-10 230,-10"/>
<text text-anchor="middle" x="333" y="-135.4" font-family="Times Roman,serif" font-size="14.00">Attachment</text>
<polyline fill="none" stroke="black" points="218,-126 448,-126 "/>
<text text-anchor="start" x="226" y="-109.4" font-family="Times Roman,serif" font-size="14.00">description :string</text>
<text text-anchor="start" x="226" y="-91.4" font-family="Times Roman,serif" font-size="14.00">created_at :datetime</text>
<text text-anchor="start" x="226" y="-73.4" font-family="Times Roman,serif" font-size="14.00">updated_at :datetime</text>
<text text-anchor="start" x="226" y="-55.4" font-family="Times Roman,serif" font-size="14.00">attachable_type :string</text>
<text text-anchor="start" x="226" y="-37.4" font-family="Times Roman,serif" font-size="14.00">number_of_downloads :integer</text>
<text text-anchor="start" x="226" y="-19.4" font-family="Times Roman,serif" font-size="14.00">file :string</text>
</g>
<!-- Activity&#45;&gt;Attachment -->
<g id="edge2" class="edge"><title>Activity&#45;&gt;Attachment</title>
<path fill="none" stroke="#e6f6a2" d="M311.308,-192.979C313.272,-182.838 315.286,-172.441 317.257,-162.265"/>
<ellipse fill="none" stroke="#e6f6a2" cx="310.538" cy="-196.952" rx="4.00001" ry="4.00001"/>
<polygon fill="#e6f6a2" stroke="#e6f6a2" points="317.309,-161.998 323.629,-153.037 318.26,-157.089 319.211,-152.181 319.211,-152.181 319.211,-152.181 318.26,-157.089 314.793,-151.325 317.309,-161.998 317.309,-161.998"/>
</g>
<!-- Phase -->
<g id="node3" class="node"><title>Phase</title>
<polyline fill="none" stroke="black" points="78.5,-383 219.5,-383 "/>
<path fill="none" stroke="black" d="M219.5,-383C225.5,-383 231.5,-389 231.5,-395"/>
<polyline fill="none" stroke="black" points="231.5,-395 231.5,-495 "/>
<path fill="none" stroke="black" d="M231.5,-495C231.5,-501 225.5,-507 219.5,-507"/>
<polyline fill="none" stroke="black" points="219.5,-507 78.5,-507 "/>
<path fill="none" stroke="black" d="M78.5,-507C72.5,-507 66.5,-501 66.5,-495"/>
<polyline fill="none" stroke="black" points="66.5,-495 66.5,-395 "/>
<path fill="none" stroke="black" d="M66.5,-395C66.5,-389 72.5,-383 78.5,-383"/>
<text text-anchor="middle" x="149" y="-490.4" font-family="Times Roman,serif" font-size="14.00">Phase</text>
<polyline fill="none" stroke="black" points="66.5,-481 231.5,-481 "/>
<text text-anchor="start" x="74.5" y="-464.4" font-family="Times Roman,serif" font-size="14.00">title :string</text>
<text text-anchor="start" x="74.5" y="-446.4" font-family="Times Roman,serif" font-size="14.00">created_at :datetime</text>
<text text-anchor="start" x="74.5" y="-428.4" font-family="Times Roman,serif" font-size="14.00">updated_at :datetime</text>
<text text-anchor="start" x="74.5" y="-410.4" font-family="Times Roman,serif" font-size="14.00">complete :boolean</text>
<text text-anchor="start" x="74.5" y="-392.4" font-family="Times Roman,serif" font-size="14.00">position :integer</text>
</g>
<!-- Phase&#45;&gt;Activity -->
<g id="edge8" class="edge"><title>Phase&#45;&gt;Activity</title>
<path fill="none" stroke="#f07284" d="M207.461,-376.199C214.526,-367.884 221.785,-359.342 228.961,-350.896"/>
<ellipse fill="none" stroke="#f07284" cx="204.66" cy="-379.495" rx="4.00002" ry="4.00002"/>
<polygon fill="#f07284" stroke="#f07284" points="229.045,-350.798 238.949,-346.091 232.282,-346.987 235.52,-343.177 235.52,-343.177 235.52,-343.177 232.282,-346.987 232.091,-340.263 229.045,-350.798 229.045,-350.798"/>
</g>
<!-- Phase&#45;&gt;Document -->
<g id="edge14" class="edge"><title>Phase&#45;&gt;Document</title>
<path fill="none" stroke="#b350d4" d="M133.839,-374.768C133.186,-371.132 132.568,-367.527 132,-364 119.763,-288.044 110.58,-199.873 105.259,-142.396"/>
<ellipse fill="none" stroke="#b350d4" cx="134.59" cy="-378.824" rx="4.00001" ry="4.00001"/>
<ellipse fill="#b350d4" stroke="#b350d4" cx="104.867" cy="-138.127" rx="4" ry="4"/>
</g>
<!-- Phase&#45;&gt;Event -->
<g id="edge12" class="edge"><title>Phase&#45;&gt;Event</title>
<path fill="none" stroke="#c6742f" d="M156.265,-374.784C164.369,-310.999 179.769,-223.405 205,-200 246.52,-161.485 402.134,-176.038 457,-162 499.589,-151.103 545.41,-135.061 584.227,-120.122"/>
<ellipse fill="none" stroke="#c6742f" cx="155.758" cy="-378.861" rx="4.00001" ry="4.00001"/>
<ellipse fill="#c6742f" stroke="#c6742f" cx="588.164" cy="-118.596" rx="4.00001" ry="4.00001"/>
</g>
<!-- Milestone -->
<g id="node15" class="node"><title>Milestone</title>
<polyline fill="none" stroke="black" points="408.5,-228 549.5,-228 "/>
<path fill="none" stroke="black" d="M549.5,-228C555.5,-228 561.5,-234 561.5,-240"/>
<polyline fill="none" stroke="black" points="561.5,-240 561.5,-304 "/>
<path fill="none" stroke="black" d="M561.5,-304C561.5,-310 555.5,-316 549.5,-316"/>
<polyline fill="none" stroke="black" points="549.5,-316 408.5,-316 "/>
<path fill="none" stroke="black" d="M408.5,-316C402.5,-316 396.5,-310 396.5,-304"/>
<polyline fill="none" stroke="black" points="396.5,-304 396.5,-240 "/>
<path fill="none" stroke="black" d="M396.5,-240C396.5,-234 402.5,-228 408.5,-228"/>
<text text-anchor="middle" x="479" y="-299.4" font-family="Times Roman,serif" font-size="14.00">Milestone</text>
<polyline fill="none" stroke="black" points="396.5,-290 561.5,-290 "/>
<text text-anchor="start" x="404.5" y="-273.4" font-family="Times Roman,serif" font-size="14.00">description :string</text>
<text text-anchor="start" x="404.5" y="-255.4" font-family="Times Roman,serif" font-size="14.00">created_at :datetime</text>
<text text-anchor="start" x="404.5" y="-237.4" font-family="Times Roman,serif" font-size="14.00">updated_at :datetime</text>
</g>
<!-- Phase&#45;&gt;Milestone -->
<g id="edge10" class="edge"><title>Phase&#45;&gt;Milestone</title>
<path fill="none" stroke="#ce8bdf" d="M239.174,-399.284C252.094,-393.226 265.307,-387.29 278,-382 325.356,-362.264 341.97,-368.585 387,-344 398.349,-337.804 409.75,-330.229 420.475,-322.346"/>
<ellipse fill="none" stroke="#ce8bdf" cx="235.223" cy="-401.151" rx="4.00002" ry="4.00002"/>
<polygon fill="#ce8bdf" stroke="#ce8bdf" points="420.545,-322.293 431.24,-319.87 424.538,-319.284 428.532,-316.276 428.532,-316.276 428.532,-316.276 424.538,-319.284 425.824,-312.681 420.545,-322.293 420.545,-322.293"/>
</g>
<!-- Phase&#45;&gt;Attachment -->
<g id="edge16" class="edge"><title>Phase&#45;&gt;Attachment</title>
<path fill="none" stroke="#9b27bd" d="M136.391,-374.923C130.012,-317.437 130.554,-236.591 170,-180 180.916,-164.339 192.297,-171.245 209,-162 211.868,-160.412 214.759,-158.782 217.662,-157.117"/>
<ellipse fill="none" stroke="#9b27bd" cx="136.862" cy="-378.903" rx="4.00001" ry="4.00001"/>
<polygon fill="#9b27bd" stroke="#9b27bd" points="217.758,-157.061 228.664,-155.914 222.078,-154.543 226.399,-152.026 226.399,-152.026 226.399,-152.026 222.078,-154.543 224.133,-148.138 217.758,-157.061 217.758,-157.061"/>
</g>
<!-- Ability -->
<g id="node4" class="node"><title>Ability</title>
<polygon fill="none" stroke="black" points="958,-1199 958,-1251 1018,-1251 1018,-1199 958,-1199"/>
<text text-anchor="middle" x="988" y="-1234.4" font-family="Times Roman,serif" font-size="14.00">Ability</text>
<polyline fill="none" stroke="black" points="958,-1225 1018,-1225 "/>
<text text-anchor="middle" x="988" y="-1208.4" font-family="Times Roman,serif" font-size="14.00"> </text>
</g>
<!-- User -->
<g id="node5" class="node"><title>User</title>
<polyline fill="none" stroke="black" points="743,-563 973,-563 "/>
<path fill="none" stroke="black" d="M973,-563C979,-563 985,-569 985,-575"/>
<polyline fill="none" stroke="black" points="985,-575 985,-927 "/>
<path fill="none" stroke="black" d="M985,-927C985,-933 979,-939 973,-939"/>
<polyline fill="none" stroke="black" points="973,-939 743,-939 "/>
<path fill="none" stroke="black" d="M743,-939C737,-939 731,-933 731,-927"/>
<polyline fill="none" stroke="black" points="731,-927 731,-575 "/>
<path fill="none" stroke="black" d="M731,-575C731,-569 737,-563 743,-563"/>
<text text-anchor="middle" x="858" y="-922.4" font-family="Times Roman,serif" font-size="14.00">User</text>
<polyline fill="none" stroke="black" points="731,-913 985,-913 "/>
<text text-anchor="start" x="739" y="-896.4" font-family="Times Roman,serif" font-size="14.00">email :string</text>
<text text-anchor="start" x="739" y="-878.4" font-family="Times Roman,serif" font-size="14.00">encrypted_password :string</text>
<text text-anchor="start" x="739" y="-860.4" font-family="Times Roman,serif" font-size="14.00">reset_password_token :string</text>
<text text-anchor="start" x="739" y="-842.4" font-family="Times Roman,serif" font-size="14.00">reset_password_sent_at :datetime</text>
<text text-anchor="start" x="739" y="-824.4" font-family="Times Roman,serif" font-size="14.00">remember_created_at :datetime</text>
<text text-anchor="start" x="739" y="-806.4" font-family="Times Roman,serif" font-size="14.00">current_sign_in_at :datetime</text>
<text text-anchor="start" x="739" y="-788.4" font-family="Times Roman,serif" font-size="14.00">last_sign_in_at :datetime</text>
<text text-anchor="start" x="739" y="-770.4" font-family="Times Roman,serif" font-size="14.00">current_sign_in_ip :string</text>
<text text-anchor="start" x="739" y="-752.4" font-family="Times Roman,serif" font-size="14.00">last_sign_in_ip :string</text>
<text text-anchor="start" x="739" y="-734.4" font-family="Times Roman,serif" font-size="14.00">created_at :datetime</text>
<text text-anchor="start" x="739" y="-716.4" font-family="Times Roman,serif" font-size="14.00">updated_at :datetime</text>
<text text-anchor="start" x="739" y="-698.4" font-family="Times Roman,serif" font-size="14.00">admin :boolean</text>
<text text-anchor="start" x="739" y="-680.4" font-family="Times Roman,serif" font-size="14.00">name :string</text>
<text text-anchor="start" x="739" y="-662.4" font-family="Times Roman,serif" font-size="14.00">number :string</text>
<text text-anchor="start" x="739" y="-644.4" font-family="Times Roman,serif" font-size="14.00">skype :string</text>
<text text-anchor="start" x="739" y="-626.4" font-family="Times Roman,serif" font-size="14.00">msn :string</text>
<text text-anchor="start" x="739" y="-608.4" font-family="Times Roman,serif" font-size="14.00">twitter :string</text>
<text text-anchor="start" x="739" y="-590.4" font-family="Times Roman,serif" font-size="14.00">facebook :string</text>
<text text-anchor="start" x="739" y="-572.4" font-family="Times Roman,serif" font-size="14.00">profile_picture :string</text>
</g>
<!-- Member -->
<g id="node11" class="node"><title>Member</title>
<polyline fill="none" stroke="black" points="298.5,-410 439.5,-410 "/>
<path fill="none" stroke="black" d="M439.5,-410C445.5,-410 451.5,-416 451.5,-422"/>
<polyline fill="none" stroke="black" points="451.5,-422 451.5,-468 "/>
<path fill="none" stroke="black" d="M451.5,-468C451.5,-474 445.5,-480 439.5,-480"/>
<polyline fill="none" stroke="black" points="439.5,-480 298.5,-480 "/>
<path fill="none" stroke="black" d="M298.5,-480C292.5,-480 286.5,-474 286.5,-468"/>
<polyline fill="none" stroke="black" points="286.5,-468 286.5,-422 "/>
<path fill="none" stroke="black" d="M286.5,-422C286.5,-416 292.5,-410 298.5,-410"/>
<text text-anchor="middle" x="369" y="-463.4" font-family="Times Roman,serif" font-size="14.00">Member</text>
<polyline fill="none" stroke="black" points="286.5,-454 451.5,-454 "/>
<text text-anchor="start" x="294.5" y="-437.4" font-family="Times Roman,serif" font-size="14.00">created_at :datetime</text>
<text text-anchor="start" x="294.5" y="-419.4" font-family="Times Roman,serif" font-size="14.00">updated_at :datetime</text>
</g>
<!-- User&#45;&gt;Member -->
<g id="edge22" class="edge"><title>User&#45;&gt;Member</title>
<path fill="none" stroke="#c4d096" d="M724.484,-620.288C699.508,-599.302 672.797,-578.946 646,-562 588.128,-525.404 516.844,-495.595 461.083,-475.225"/>
<ellipse fill="none" stroke="#c4d096" cx="727.744" cy="-623.049" rx="4.00002" ry="4.00002"/>
<polygon fill="#c4d096" stroke="#c4d096" points="460.971,-475.185 453.097,-467.553 456.269,-473.485 451.567,-471.785 451.567,-471.785 451.567,-471.785 456.269,-473.485 450.037,-476.017 460.971,-475.185 460.971,-475.185"/>
<text text-anchor="middle" x="643.5" y="-531.4" font-family="Times Roman,serif" font-size="14.00">assignees</text>
</g>
<!-- Message -->
<g id="node27" class="node"><title>Message</title>
<ellipse fill="none" stroke="black" cx="936" cy="-445" rx="53.033" ry="18.3848"/>
<text text-anchor="middle" x="936" y="-441.4" font-family="Times Roman,serif" font-size="14.00">Message</text>
</g>
<!-- User&#45;&gt;Message -->
<g id="edge18" class="edge"><title>User&#45;&gt;Message</title>
<path fill="none" stroke="#8fdc46" d="M908.009,-554.811C916.153,-522.862 923.599,-493.651 928.76,-473.401"/>
<ellipse fill="none" stroke="#8fdc46" cx="906.943" cy="-558.994" rx="4.00001" ry="4.00001"/>
<polygon fill="#8fdc46" stroke="#8fdc46" points="928.773,-473.352 935.604,-464.774 930.008,-468.507 931.243,-463.662 931.243,-463.662 931.243,-463.662 930.008,-468.507 926.882,-462.551 928.773,-473.352 928.773,-473.352"/>
</g>
<!-- Receipt -->
<g id="node29" class="node"><title>Receipt</title>
<ellipse fill="none" stroke="black" cx="818" cy="-445" rx="46.8775" ry="18.3848"/>
<text text-anchor="middle" x="818" y="-441.4" font-family="Times Roman,serif" font-size="14.00">Receipt</text>
</g>
<!-- User&#45;&gt;Receipt -->
<g id="edge20" class="edge"><title>User&#45;&gt;Receipt</title>
<path fill="none" stroke="#00948e" d="M832.354,-554.811C828.197,-523.009 824.395,-493.919 821.749,-473.681"/>
<ellipse fill="none" stroke="#00948e" cx="832.889" cy="-558.904" rx="4.00001" ry="4.00001"/>
<polygon fill="#00948e" stroke="#00948e" points="821.736,-473.578 824.902,-463.079 821.088,-468.62 820.44,-463.662 820.44,-463.662 820.44,-463.662 821.088,-468.62 815.977,-464.246 821.736,-473.578 821.736,-473.578"/>
</g>
<!-- ActivityStatus -->
<g id="node6" class="node"><title>ActivityStatus</title>
<polyline fill="none" stroke="black" points="1047.5,-1181 1188.5,-1181 "/>
<path fill="none" stroke="black" d="M1188.5,-1181C1194.5,-1181 1200.5,-1187 1200.5,-1193"/>
<polyline fill="none" stroke="black" points="1200.5,-1193 1200.5,-1257 "/>
<path fill="none" stroke="black" d="M1200.5,-1257C1200.5,-1263 1194.5,-1269 1188.5,-1269"/>
<polyline fill="none" stroke="black" points="1188.5,-1269 1047.5,-1269 "/>
<path fill="none" stroke="black" d="M1047.5,-1269C1041.5,-1269 1035.5,-1263 1035.5,-1257"/>
<polyline fill="none" stroke="black" points="1035.5,-1257 1035.5,-1193 "/>
<path fill="none" stroke="black" d="M1035.5,-1193C1035.5,-1187 1041.5,-1181 1047.5,-1181"/>
<text text-anchor="middle" x="1118" y="-1252.4" font-family="Times Roman,serif" font-size="14.00">ActivityStatus</text>
<polyline fill="none" stroke="black" points="1035.5,-1243 1200.5,-1243 "/>
<text text-anchor="start" x="1043.5" y="-1226.4" font-family="Times Roman,serif" font-size="14.00">name :string</text>
<text text-anchor="start" x="1043.5" y="-1208.4" font-family="Times Roman,serif" font-size="14.00">created_at :datetime</text>
<text text-anchor="start" x="1043.5" y="-1190.4" font-family="Times Roman,serif" font-size="14.00">updated_at :datetime</text>
</g>
<!-- Project -->
<g id="node7" class="node"><title>Project</title>
<polyline fill="none" stroke="black" points="336.5,-979 477.5,-979 "/>
<path fill="none" stroke="black" d="M477.5,-979C483.5,-979 489.5,-985 489.5,-991"/>
<polyline fill="none" stroke="black" points="489.5,-991 489.5,-1127 "/>
<path fill="none" stroke="black" d="M489.5,-1127C489.5,-1133 483.5,-1139 477.5,-1139"/>
<polyline fill="none" stroke="black" points="477.5,-1139 336.5,-1139 "/>
<path fill="none" stroke="black" d="M336.5,-1139C330.5,-1139 324.5,-1133 324.5,-1127"/>
<polyline fill="none" stroke="black" points="324.5,-1127 324.5,-991 "/>
<path fill="none" stroke="black" d="M324.5,-991C324.5,-985 330.5,-979 336.5,-979"/>
<text text-anchor="middle" x="407" y="-1122.4" font-family="Times Roman,serif" font-size="14.00">Project</text>
<polyline fill="none" stroke="black" points="324.5,-1113 489.5,-1113 "/>
<text text-anchor="start" x="332.5" y="-1096.4" font-family="Times Roman,serif" font-size="14.00">name :string</text>
<text text-anchor="start" x="332.5" y="-1078.4" font-family="Times Roman,serif" font-size="14.00">identifier :string</text>
<text text-anchor="start" x="332.5" y="-1060.4" font-family="Times Roman,serif" font-size="14.00">homepage :string</text>
<text text-anchor="start" x="332.5" y="-1042.4" font-family="Times Roman,serif" font-size="14.00">created_at :datetime</text>
<text text-anchor="start" x="332.5" y="-1024.4" font-family="Times Roman,serif" font-size="14.00">updated_at :datetime</text>
<text text-anchor="start" x="332.5" y="-1006.4" font-family="Times Roman,serif" font-size="14.00">description :text</text>
<text text-anchor="start" x="332.5" y="-988.4" font-family="Times Roman,serif" font-size="14.00">is_public :boolean</text>
</g>
<!-- Project&#45;&gt;Activity -->
<g id="edge32" class="edge"><title>Project&#45;&gt;Activity</title>
<path fill="none" stroke="#5cac8c" d="M315.237,-1028.71C274.133,-1010.02 229.667,-981.515 206,-940 122.798,-794.05 159.417,-723.413 206,-562 213.864,-534.751 229.022,-534.15 240,-508 260.804,-458.443 274.783,-399.637 283.572,-353.125"/>
<polygon fill="#5cac8c" stroke="#5cac8c" points="315.341,-1028.75 322.683,-1036.9 319.918,-1030.76 324.495,-1032.78 324.495,-1032.78 324.495,-1032.78 319.918,-1030.76 326.306,-1028.66 315.341,-1028.75 315.341,-1028.75"/>
<polygon fill="#5cac8c" stroke="#5cac8c" points="283.609,-352.927 289.849,-343.91 284.516,-348.01 285.424,-343.093 285.424,-343.093 285.424,-343.093 284.516,-348.01 280.998,-342.276 283.609,-352.927 283.609,-352.927"/>
</g>
<!-- Project&#45;&gt;Phase -->
<g id="edge30" class="edge"><title>Project&#45;&gt;Phase</title>
<path fill="none" stroke="#78583b" d="M316.653,-1044.87C265.68,-1031.87 205.802,-1007.08 173,-960 80.3024,-826.963 106.78,-624.321 130.185,-517.205"/>
<ellipse fill="none" stroke="#78583b" cx="320.543" cy="-1045.83" rx="4.00001" ry="4.00001"/>
<polygon fill="#78583b" stroke="#78583b" points="130.253,-516.901 136.828,-508.125 131.345,-512.021 132.436,-507.142 132.436,-507.142 132.436,-507.142 131.345,-512.021 128.045,-506.16 130.253,-516.901 130.253,-516.901"/>
</g>
<!-- Report -->
<g id="node8" class="node"><title>Report</title>
<polyline fill="none" stroke="black" points="484.5,-680 625.5,-680 "/>
<path fill="none" stroke="black" d="M625.5,-680C631.5,-680 637.5,-686 637.5,-692"/>
<polyline fill="none" stroke="black" points="637.5,-692 637.5,-810 "/>
<path fill="none" stroke="black" d="M637.5,-810C637.5,-816 631.5,-822 625.5,-822"/>
<polyline fill="none" stroke="black" points="625.5,-822 484.5,-822 "/>
<path fill="none" stroke="black" d="M484.5,-822C478.5,-822 472.5,-816 472.5,-810"/>
<polyline fill="none" stroke="black" points="472.5,-810 472.5,-692 "/>
<path fill="none" stroke="black" d="M472.5,-692C472.5,-686 478.5,-680 484.5,-680"/>
<text text-anchor="middle" x="555" y="-805.4" font-family="Times Roman,serif" font-size="14.00">Report</text>
<polyline fill="none" stroke="black" points="472.5,-796 637.5,-796 "/>
<text text-anchor="start" x="480.5" y="-779.4" font-family="Times Roman,serif" font-size="14.00">prepared_by :string</text>
<text text-anchor="start" x="480.5" y="-761.4" font-family="Times Roman,serif" font-size="14.00">description :text</text>
<text text-anchor="start" x="480.5" y="-743.4" font-family="Times Roman,serif" font-size="14.00">comments :text</text>
<text text-anchor="start" x="480.5" y="-725.4" font-family="Times Roman,serif" font-size="14.00">created_at :datetime</text>
<text text-anchor="start" x="480.5" y="-707.4" font-family="Times Roman,serif" font-size="14.00">updated_at :datetime</text>
<text text-anchor="start" x="480.5" y="-689.4" font-family="Times Roman,serif" font-size="14.00">activities :string</text>
</g>
<!-- Project&#45;&gt;Report -->
<g id="edge36" class="edge"><title>Project&#45;&gt;Report</title>
<path fill="none" stroke="#56ddd8" d="M453.138,-971.775C455.137,-967.804 457.099,-963.865 459,-960 479.72,-917.873 501.658,-870.357 519.323,-831.288"/>
<ellipse fill="none" stroke="#56ddd8" cx="451.314" cy="-975.379" rx="4.00002" ry="4.00002"/>
<polygon fill="#56ddd8" stroke="#56ddd8" points="519.374,-831.176 527.589,-823.912 521.43,-826.619 523.487,-822.061 523.487,-822.061 523.487,-822.061 521.43,-826.619 519.385,-820.21 519.374,-831.176 519.374,-831.176"/>
</g>
<!-- Project&#45;&gt;Document -->
<g id="edge28" class="edge"><title>Project&#45;&gt;Document</title>
<path fill="none" stroke="#66dce4" d="M316.281,-1044.39C249.304,-1029.13 160.351,-998.827 104,-940 42.553,-875.853 39,-839.829 39,-751 39,-751 39,-751 39,-272 39,-227.743 54.0455,-180.336 69.1921,-143.823"/>
<ellipse fill="none" stroke="#66dce4" cx="320.431" cy="-1045.31" rx="4.00001" ry="4.00001"/>
<polygon fill="#66dce4" stroke="#66dce4" points="69.327,-143.506 77.3848,-136.069 71.2857,-138.906 73.2445,-134.306 73.2445,-134.306 73.2445,-134.306 71.2857,-138.906 69.1042,-132.543 69.327,-143.506 69.327,-143.506"/>
</g>
<!-- Project&#45;&gt;Member -->
<g id="edge24" class="edge"><title>Project&#45;&gt;Member</title>
<path fill="none" stroke="#ef2b9f" d="M406.888,-970.502C406.003,-870.933 402.239,-704.488 388,-562 385.615,-538.136 381.464,-511.752 377.649,-490.088"/>
<ellipse fill="none" stroke="#ef2b9f" cx="406.923" cy="-974.739" rx="4" ry="4"/>
<polygon fill="#ef2b9f" stroke="#ef2b9f" points="377.637,-490.022 380.299,-479.384 376.754,-485.1 375.87,-480.179 375.87,-480.179 375.87,-480.179 376.754,-485.1 371.441,-480.974 377.637,-490.022 377.637,-490.022"/>
</g>
<!-- Project&#45;&gt;Event -->
<g id="edge38" class="edge"><title>Project&#45;&gt;Event</title>
<path fill="none" stroke="#b9ae46" d="M497.84,-1045.39C559.025,-1030.82 634.755,-1000.93 670,-940 712.699,-866.19 703,-836.271 703,-751 703,-751 703,-751 703,-272 703,-238.241 699.113,-201.408 694.404,-169.174"/>
<ellipse fill="none" stroke="#b9ae46" cx="493.59" cy="-1046.37" rx="4.00001" ry="4.00001"/>
<ellipse fill="#b9ae46" stroke="#b9ae46" cx="693.784" cy="-165.038" rx="4.00001" ry="4.00001"/>
</g>
<!-- Group -->
<g id="node14" class="node"><title>Group</title>
<polyline fill="none" stroke="black" points="226.5,-716 367.5,-716 "/>
<path fill="none" stroke="black" d="M367.5,-716C373.5,-716 379.5,-722 379.5,-728"/>
<polyline fill="none" stroke="black" points="379.5,-728 379.5,-774 "/>
<path fill="none" stroke="black" d="M379.5,-774C379.5,-780 373.5,-786 367.5,-786"/>
<polyline fill="none" stroke="black" points="367.5,-786 226.5,-786 "/>
<path fill="none" stroke="black" d="M226.5,-786C220.5,-786 214.5,-780 214.5,-774"/>
<polyline fill="none" stroke="black" points="214.5,-774 214.5,-728 "/>
<path fill="none" stroke="black" d="M214.5,-728C214.5,-722 220.5,-716 226.5,-716"/>
<text text-anchor="middle" x="297" y="-769.4" font-family="Times Roman,serif" font-size="14.00">Group</text>
<polyline fill="none" stroke="black" points="214.5,-760 379.5,-760 "/>
<text text-anchor="start" x="222.5" y="-743.4" font-family="Times Roman,serif" font-size="14.00">created_at :datetime</text>
<text text-anchor="start" x="222.5" y="-725.4" font-family="Times Roman,serif" font-size="14.00">updated_at :datetime</text>
</g>
<!-- Project&#45;&gt;Group -->
<g id="edge40" class="edge"><title>Project&#45;&gt;Group</title>
<path fill="none" stroke="#d13818" d="M375.608,-971.102C354.879,-913.06 328.628,-839.557 312.323,-793.904"/>
<ellipse fill="none" stroke="#d13818" cx="377.041" cy="-975.114" rx="4.00001" ry="4.00001"/>
<ellipse fill="#d13818" stroke="#d13818" cx="310.941" cy="-790.035" rx="4.00001" ry="4.00001"/>
</g>
<!-- Project&#45;&gt;Milestone -->
<g id="edge26" class="edge"><title>Project&#45;&gt;Milestone</title>
<path fill="none" stroke="#7298a4" d="M418.679,-970.772C419.131,-967.134 419.573,-963.532 420,-960 441.364,-783.32 439.584,-738.284 464,-562 465.113,-553.966 466.153,-552.066 467,-544 474.883,-468.922 477.601,-381.659 478.53,-326.633"/>
<ellipse fill="none" stroke="#7298a4" cx="418.173" cy="-974.812" rx="4.00001" ry="4.00001"/>
<polygon fill="#7298a4" stroke="#7298a4" points="478.533,-326.407 483.188,-316.478 478.611,-321.408 478.688,-316.408 478.688,-316.408 478.688,-316.408 478.611,-321.408 474.189,-316.338 478.533,-326.407 478.533,-326.407"/>
</g>
<!-- Project&#45;&gt;Attachment -->
<g id="edge34" class="edge"><title>Project&#45;&gt;Attachment</title>
<path fill="none" stroke="#b9e92b" d="M497.359,-1039.18C550.568,-1022.36 613.613,-992.304 646,-940 690.221,-868.582 654.676,-645.551 646,-562 629.02,-398.483 670.3,-330.254 570,-200 541.665,-163.203 498.863,-136.928 457.395,-118.597"/>
<ellipse fill="none" stroke="#b9e92b" cx="493.408" cy="-1040.39" rx="4.00001" ry="4.00001"/>
<polygon fill="#b9e92b" stroke="#b9e92b" points="457.206,-118.516 449.79,-110.437 452.611,-116.544 448.016,-114.573 448.016,-114.573 448.016,-114.573 452.611,-116.544 446.242,-118.708 457.206,-118.516 457.206,-118.516"/>
</g>
<!-- Supervisor -->
<g id="node9" class="node"><title>Supervisor</title>
<polyline fill="none" stroke="black" points="336.5,-1190 477.5,-1190 "/>
<path fill="none" stroke="black" d="M477.5,-1190C483.5,-1190 489.5,-1196 489.5,-1202"/>
<polyline fill="none" stroke="black" points="489.5,-1202 489.5,-1248 "/>
<path fill="none" stroke="black" d="M489.5,-1248C489.5,-1254 483.5,-1260 477.5,-1260"/>
<polyline fill="none" stroke="black" points="477.5,-1260 336.5,-1260 "/>
<path fill="none" stroke="black" d="M336.5,-1260C330.5,-1260 324.5,-1254 324.5,-1248"/>
<polyline fill="none" stroke="black" points="324.5,-1248 324.5,-1202 "/>
<path fill="none" stroke="black" d="M324.5,-1202C324.5,-1196 330.5,-1190 336.5,-1190"/>
<text text-anchor="middle" x="407" y="-1243.4" font-family="Times Roman,serif" font-size="14.00">Supervisor</text>
<polyline fill="none" stroke="black" points="324.5,-1234 489.5,-1234 "/>
<text text-anchor="start" x="332.5" y="-1217.4" font-family="Times Roman,serif" font-size="14.00">created_at :datetime</text>
<text text-anchor="start" x="332.5" y="-1199.4" font-family="Times Roman,serif" font-size="14.00">updated_at :datetime</text>
</g>
<!-- Supervisor&#45;&gt;Project -->
<g id="edge42" class="edge"><title>Supervisor&#45;&gt;Project</title>
<path fill="none" stroke="#063d15" d="M407,-1181.51C407,-1170.94 407,-1159.26 407,-1147.44"/>
<ellipse fill="none" stroke="#063d15" cx="407" cy="-1185.8" rx="4" ry="4"/>
<ellipse fill="#063d15" stroke="#063d15" cx="407" cy="-1143.23" rx="4" ry="4"/>
</g>
<!-- Member&#45;&gt;Activity -->
<g id="edge44" class="edge"><title>Member&#45;&gt;Activity</title>
<path fill="none" stroke="#d8ea25" d="M351.081,-402.534C344.7,-387.411 337.285,-369.84 330.004,-352.585"/>
<ellipse fill="none" stroke="#d8ea25" cx="352.672" cy="-406.306" rx="4.00002" ry="4.00002"/>
<polygon fill="#d8ea25" stroke="#d8ea25" points="329.868,-352.262 330.126,-341.299 327.924,-347.655 325.98,-343.048 325.98,-343.048 325.98,-343.048 327.924,-347.655 321.834,-344.798 329.868,-352.262 329.868,-352.262"/>
</g>
<!-- Intake -->
<g id="node12" class="node"><title>Intake</title>
<polyline fill="none" stroke="black" points="787.5,-1181 928.5,-1181 "/>
<path fill="none" stroke="black" d="M928.5,-1181C934.5,-1181 940.5,-1187 940.5,-1193"/>
<polyline fill="none" stroke="black" points="940.5,-1193 940.5,-1257 "/>
<path fill="none" stroke="black" d="M940.5,-1257C940.5,-1263 934.5,-1269 928.5,-1269"/>
<polyline fill="none" stroke="black" points="928.5,-1269 787.5,-1269 "/>
<path fill="none" stroke="black" d="M787.5,-1269C781.5,-1269 775.5,-1263 775.5,-1257"/>
<polyline fill="none" stroke="black" points="775.5,-1257 775.5,-1193 "/>
<path fill="none" stroke="black" d="M775.5,-1193C775.5,-1187 781.5,-1181 787.5,-1181"/>
<text text-anchor="middle" x="858" y="-1252.4" font-family="Times Roman,serif" font-size="14.00">Intake</text>
<polyline fill="none" stroke="black" points="775.5,-1243 940.5,-1243 "/>
<text text-anchor="start" x="783.5" y="-1226.4" font-family="Times Roman,serif" font-size="14.00">number :string</text>
<text text-anchor="start" x="783.5" y="-1208.4" font-family="Times Roman,serif" font-size="14.00">created_at :datetime</text>
<text text-anchor="start" x="783.5" y="-1190.4" font-family="Times Roman,serif" font-size="14.00">updated_at :datetime</text>
</g>
<!-- Intake&#45;&gt;User -->
<g id="edge46" class="edge"><title>Intake&#45;&gt;User</title>
<path fill="none" stroke="#194dbe" d="M847.269,-1172.56C845.492,-1161.83 843.927,-1150.59 843,-1140 837.583,-1078.14 837.987,-1010.57 840.732,-949.359"/>
<ellipse fill="none" stroke="#194dbe" cx="847.983" cy="-1176.7" rx="4.00001" ry="4.00001"/>
<polygon fill="#194dbe" stroke="#194dbe" points="840.74,-949.187 845.706,-939.41 840.975,-944.193 841.211,-939.198 841.211,-939.198 841.211,-939.198 840.975,-944.193 836.716,-938.986 840.74,-949.187 840.74,-949.187"/>
</g>
<!-- Subject -->
<g id="node17" class="node"><title>Subject</title>
<polyline fill="none" stroke="black" points="863.5,-1015 1004.5,-1015 "/>
<path fill="none" stroke="black" d="M1004.5,-1015C1010.5,-1015 1016.5,-1021 1016.5,-1027"/>
<polyline fill="none" stroke="black" points="1016.5,-1027 1016.5,-1091 "/>
<path fill="none" stroke="black" d="M1016.5,-1091C1016.5,-1097 1010.5,-1103 1004.5,-1103"/>
<polyline fill="none" stroke="black" points="1004.5,-1103 863.5,-1103 "/>
<path fill="none" stroke="black" d="M863.5,-1103C857.5,-1103 851.5,-1097 851.5,-1091"/>
<polyline fill="none" stroke="black" points="851.5,-1091 851.5,-1027 "/>
<path fill="none" stroke="black" d="M851.5,-1027C851.5,-1021 857.5,-1015 863.5,-1015"/>
<text text-anchor="middle" x="934" y="-1086.4" font-family="Times Roman,serif" font-size="14.00">Subject</text>
<polyline fill="none" stroke="black" points="851.5,-1077 1016.5,-1077 "/>
<text text-anchor="start" x="859.5" y="-1060.4" font-family="Times Roman,serif" font-size="14.00">title :string</text>
<text text-anchor="start" x="859.5" y="-1042.4" font-family="Times Roman,serif" font-size="14.00">created_at :datetime</text>
<text text-anchor="start" x="859.5" y="-1024.4" font-family="Times Roman,serif" font-size="14.00">updated_at :datetime</text>
</g>
<!-- Intake&#45;&gt;Subject -->
<g id="edge48" class="edge"><title>Intake&#45;&gt;Subject</title>
<path fill="none" stroke="#3e98bc" d="M882.4,-1171.7C891.091,-1152.72 900.875,-1131.35 909.568,-1112.36"/>
<polygon fill="#3e98bc" stroke="#3e98bc" points="882.33,-1171.86 874.075,-1179.08 880.248,-1176.4 878.167,-1180.95 878.167,-1180.95 878.167,-1180.95 880.248,-1176.4 882.259,-1182.82 882.33,-1171.86 882.33,-1171.86"/>
<polygon fill="#3e98bc" stroke="#3e98bc" points="909.576,-1112.35 917.83,-1105.13 911.657,-1107.8 913.739,-1103.25 913.739,-1103.25 913.739,-1103.25 911.657,-1107.8 909.647,-1101.38 909.576,-1112.35 909.576,-1112.35"/>
</g>
<!-- Group&#45;&gt;Member -->
<g id="edge50" class="edge"><title>Group&#45;&gt;Member</title>
<path fill="none" stroke="#892905" d="M307.12,-707.991C320.658,-650.455 344.554,-548.896 358.354,-490.244"/>
<ellipse fill="none" stroke="#892905" cx="306.176" cy="-712.004" rx="4.00001" ry="4.00001"/>
<polygon fill="#892905" stroke="#892905" points="358.436,-489.897 365.107,-481.193 359.581,-485.03 360.726,-480.163 360.726,-480.163 360.726,-480.163 359.581,-485.03 356.346,-479.132 358.436,-489.897 358.436,-489.897"/>
</g>
<!-- Subject&#45;&gt;User -->
<g id="edge52" class="edge"><title>Subject&#45;&gt;User</title>
<path fill="none" stroke="#462a7c" d="M920.654,-1004.91C916.575,-988.381 911.829,-969.148 906.808,-948.802"/>
<polygon fill="#462a7c" stroke="#462a7c" points="920.715,-1005.16 918.742,-1015.95 921.913,-1010.02 923.111,-1014.87 923.111,-1014.87 923.111,-1014.87 921.913,-1010.02 927.48,-1013.79 920.715,-1005.16 920.715,-1005.16"/>
<polygon fill="#462a7c" stroke="#462a7c" points="906.8,-948.767 908.773,-937.98 905.602,-943.912 904.404,-939.058 904.404,-939.058 904.404,-939.058 905.602,-943.912 900.035,-940.136 906.8,-948.767 906.8,-948.767"/>
</g>
</g>
</svg>
