<?xml version="1.0" encoding="UTF-8" standalone="no"?>
<!DOCTYPE svg PUBLIC "-//W3C//DTD SVG 1.1//EN"
 "http://www.w3.org/Graphics/SVG/1.1/DTD/svg11.dtd">
<!-- Generated by graphviz version 2.26.3 (20100126.1600)
 -->
<!-- Title: models_diagram Pages: 1 -->
<svg width="919pt" height="498pt"
 viewBox="0.00 0.00 919.00 498.00" xmlns="http://www.w3.org/2000/svg" xmlns:xlink="http://www.w3.org/1999/xlink">
<g id="graph1" class="graph" transform="scale(1 1) rotate(0) translate(4 494)">
<title>models_diagram</title>
<polygon fill="white" stroke="white" points="-4,5 -4,-494 916,-494 916,5 -4,5"/>
<!-- _diagram_info -->
<g id="node1" class="node"><title>_diagram_info</title>
<text text-anchor="start" x="8" y="-473.8" font-family="Times Roman,serif" font-size="13.00">Models diagram</text>
<text text-anchor="start" x="8" y="-456.8" font-family="Times Roman,serif" font-size="13.00">Date: Jun 22 2012 &#45; 13:49</text>
<text text-anchor="start" x="8" y="-439.8" font-family="Times Roman,serif" font-size="13.00">Migration version: 20120621084745</text>
<text text-anchor="start" x="8" y="-422.8" font-family="Times Roman,serif" font-size="13.00">Generated by RailRoady 1.0.7</text>
<text text-anchor="start" x="8" y="-405.8" font-family="Times Roman,serif" font-size="13.00">http://railroady.prestonlee.com</text>
</g>
<!-- Activity -->
<g id="node2" class="node"><title>Activity</title>
<ellipse fill="none" stroke="black" cx="270" cy="-95" rx="48.7904" ry="18.3848"/>
<text text-anchor="middle" x="270" y="-91.4" font-family="Times Roman,serif" font-size="14.00">Activity</text>
</g>
<!-- Document -->
<g id="node10" class="node"><title>Document</title>
<ellipse fill="none" stroke="black" cx="117" cy="-19" rx="62.2254" ry="18.3848"/>
<text text-anchor="middle" x="117" y="-15.4" font-family="Times Roman,serif" font-size="14.00">Document</text>
</g>
<!-- Activity&#45;&gt;Document -->
<g id="edge6" class="edge"><title>Activity&#45;&gt;Document</title>
<path fill="none" stroke="#3bf04e" d="M232.813,-76.528C209.728,-65.0611 180.086,-50.3366 156.569,-38.6551"/>
<ellipse fill="none" stroke="#3bf04e" cx="236.554" cy="-78.3865" rx="4.00002" ry="4.00002"/>
<ellipse fill="#3bf04e" stroke="#3bf04e" cx="152.747" cy="-36.7568" rx="4.00002" ry="4.00002"/>
</g>
<!-- Event -->
<g id="node13" class="node"><title>Event</title>
<ellipse fill="none" stroke="black" cx="526" cy="-19" rx="39.8075" ry="18.3848"/>
<text text-anchor="middle" x="526" y="-15.4" font-family="Times Roman,serif" font-size="14.00">Event</text>
</g>
<!-- Activity&#45;&gt;Event -->
<g id="edge4" class="edge"><title>Activity&#45;&gt;Event</title>
<path fill="none" stroke="#d8adda" d="M316.47,-81.2043C364.337,-66.9938 438.261,-45.0474 484.302,-31.3792"/>
<ellipse fill="none" stroke="#d8adda" cx="312.438" cy="-82.4013" rx="4.00001" ry="4.00001"/>
<ellipse fill="#d8adda" stroke="#d8adda" cx="488.167" cy="-30.2317" rx="4.00001" ry="4.00001"/>
</g>
<!-- Attachment -->
<g id="node16" class="node"><title>Attachment</title>
<ellipse fill="none" stroke="black" cx="270" cy="-19" rx="68.7979" ry="18.3848"/>
<text text-anchor="middle" x="270" y="-15.4" font-family="Times Roman,serif" font-size="14.00">Attachment</text>
</g>
<!-- Activity&#45;&gt;Attachment -->
<g id="edge2" class="edge"><title>Activity&#45;&gt;Attachment</title>
<path fill="none" stroke="#707c22" d="M270,-68.0731C270,-61.4485 270,-54.332 270,-47.6302"/>
<ellipse fill="none" stroke="#707c22" cx="270" cy="-72.2135" rx="4" ry="4"/>
<polygon fill="#707c22" stroke="#707c22" points="270,-47.5704 274.5,-37.5704 270,-42.5704 270,-37.5704 270,-37.5704 270,-37.5704 270,-42.5704 265.5,-37.5705 270,-47.5704 270,-47.5704"/>
</g>
<!-- Phase -->
<g id="node3" class="node"><title>Phase</title>
<ellipse fill="none" stroke="black" cx="155" cy="-171" rx="41.0122" ry="18.3848"/>
<text text-anchor="middle" x="155" y="-167.4" font-family="Times Roman,serif" font-size="14.00">Phase</text>
</g>
<!-- Phase&#45;&gt;Activity -->
<g id="edge8" class="edge"><title>Phase&#45;&gt;Activity</title>
<path fill="none" stroke="#8eaf09" d="M184.966,-151.196C200.883,-140.678 220.483,-127.724 236.854,-116.905"/>
<ellipse fill="none" stroke="#8eaf09" cx="181.609" cy="-153.415" rx="4.00002" ry="4.00002"/>
<polygon fill="#8eaf09" stroke="#8eaf09" points="237.229,-116.657 248.053,-114.898 241.401,-113.901 245.572,-111.144 245.572,-111.144 245.572,-111.144 241.401,-113.901 243.091,-107.39 237.229,-116.657 237.229,-116.657"/>
</g>
<!-- Phase&#45;&gt;Document -->
<g id="edge14" class="edge"><title>Phase&#45;&gt;Document</title>
<path fill="none" stroke="#387a2e" d="M144.57,-144.964C143.277,-141.312 142.045,-137.583 141,-134 132.304,-104.18 125.461,-69.1402 121.344,-45.6447"/>
<ellipse fill="none" stroke="#387a2e" cx="146.061" cy="-148.996" rx="4.00001" ry="4.00001"/>
<ellipse fill="#387a2e" stroke="#387a2e" cx="120.629" cy="-41.4841" rx="4.00001" ry="4.00001"/>
</g>
<!-- Phase&#45;&gt;Event -->
<g id="edge12" class="edge"><title>Phase&#45;&gt;Event</title>
<path fill="none" stroke="#ca1403" d="M163.774,-144.678C172.489,-122.764 188.047,-92.5626 212,-76 254.43,-46.6609 401.274,-29.845 478.18,-22.8572"/>
<ellipse fill="none" stroke="#ca1403" cx="162.289" cy="-148.596" rx="4.00001" ry="4.00001"/>
<ellipse fill="#ca1403" stroke="#ca1403" cx="482.316" cy="-22.488" rx="4" ry="4"/>
</g>
<!-- Milestone -->
<g id="node15" class="node"><title>Milestone</title>
<ellipse fill="none" stroke="black" cx="406" cy="-95" rx="58.1882" ry="18.3848"/>
<text text-anchor="middle" x="406" y="-91.4" font-family="Times Roman,serif" font-size="14.00">Milestone</text>
</g>
<!-- Phase&#45;&gt;Milestone -->
<g id="edge10" class="edge"><title>Phase&#45;&gt;Milestone</title>
<path fill="none" stroke="#a38fe3" d="M196.846,-158.33C240.006,-145.261 307.404,-124.854 353.971,-110.754"/>
<ellipse fill="none" stroke="#a38fe3" cx="192.941" cy="-159.512" rx="4.00001" ry="4.00001"/>
<polygon fill="#a38fe3" stroke="#a38fe3" points="354.005,-110.744 364.88,-112.153 358.79,-109.295 363.575,-107.846 363.575,-107.846 363.575,-107.846 358.79,-109.295 362.271,-103.539 354.005,-110.744 354.005,-110.744"/>
</g>
<!-- Phase&#45;&gt;Attachment -->
<g id="edge16" class="edge"><title>Phase&#45;&gt;Attachment</title>
<path fill="none" stroke="#a8813f" d="M153.783,-144.285C154.048,-118.813 158.343,-80.7662 179,-56 186.596,-46.8936 196.778,-40.0044 207.582,-34.7998"/>
<ellipse fill="none" stroke="#a8813f" cx="153.807" cy="-148.404" rx="4" ry="4"/>
<polygon fill="#a8813f" stroke="#a8813f" points="207.589,-34.797 218.554,-34.9398 212.175,-32.8047 216.761,-30.8125 216.761,-30.8125 216.761,-30.8125 212.175,-32.8047 214.967,-26.6851 207.589,-34.797 207.589,-34.797"/>
</g>
<!-- Ability -->
<g id="node4" class="node"><title>Ability</title>
<polygon fill="none" stroke="black" points="733,-461 673,-461 673,-425 733,-425 733,-461"/>
<text text-anchor="middle" x="703" y="-439.4" font-family="Times Roman,serif" font-size="14.00">Ability</text>
</g>
<!-- User -->
<g id="node5" class="node"><title>User</title>
<ellipse fill="none" stroke="black" cx="626" cy="-263" rx="33.9411" ry="18.3848"/>
<text text-anchor="middle" x="626" y="-259.4" font-family="Times Roman,serif" font-size="14.00">User</text>
</g>
<!-- Member -->
<g id="node11" class="node"><title>Member</title>
<ellipse fill="none" stroke="black" cx="303" cy="-171" rx="50.9117" ry="18.3848"/>
<text text-anchor="middle" x="303" y="-167.4" font-family="Times Roman,serif" font-size="14.00">Member</text>
</g>
<!-- User&#45;&gt;Member -->
<g id="edge22" class="edge"><title>User&#45;&gt;Member</title>
<path fill="none" stroke="#059e61" d="M587.696,-252.09C529.33,-235.465 418.089,-203.781 353.288,-185.323"/>
<ellipse fill="none" stroke="#059e61" cx="591.766" cy="-253.249" rx="4.00001" ry="4.00001"/>
<polygon fill="#059e61" stroke="#059e61" points="352.919,-185.218 344.534,-178.151 348.11,-183.849 343.302,-182.479 343.302,-182.479 343.302,-182.479 348.11,-183.849 342.069,-186.807 352.919,-185.218 352.919,-185.218"/>
<text text-anchor="middle" x="526.5" y="-213.4" font-family="Times Roman,serif" font-size="14.00">assignees</text>
</g>
<!-- Message -->
<g id="node27" class="node"><title>Message</title>
<ellipse fill="none" stroke="black" cx="744" cy="-171" rx="53.033" ry="18.3848"/>
<text text-anchor="middle" x="744" y="-167.4" font-family="Times Roman,serif" font-size="14.00">Message</text>
</g>
<!-- User&#45;&gt;Message -->
<g id="edge18" class="edge"><title>User&#45;&gt;Message</title>
<path fill="none" stroke="#2fdd51" d="M651.994,-242.733C670.294,-228.466 694.839,-209.329 713.975,-194.409"/>
<ellipse fill="none" stroke="#2fdd51" cx="648.64" cy="-245.349" rx="4.00002" ry="4.00002"/>
<polygon fill="#2fdd51" stroke="#2fdd51" points="714.191,-194.241 724.844,-191.641 718.134,-191.167 722.077,-188.092 722.077,-188.092 722.077,-188.092 718.134,-191.167 719.31,-184.543 714.191,-194.241 714.191,-194.241"/>
</g>
<!-- Receipt -->
<g id="node29" class="node"><title>Receipt</title>
<ellipse fill="none" stroke="black" cx="626" cy="-171" rx="46.8775" ry="18.3848"/>
<text text-anchor="middle" x="626" y="-167.4" font-family="Times Roman,serif" font-size="14.00">Receipt</text>
</g>
<!-- User&#45;&gt;Receipt -->
<g id="edge20" class="edge"><title>User&#45;&gt;Receipt</title>
<path fill="none" stroke="#585586" d="M626,-236.029C626,-224.599 626,-211.267 626,-199.66"/>
<ellipse fill="none" stroke="#585586" cx="626" cy="-240.382" rx="4" ry="4"/>
<polygon fill="#585586" stroke="#585586" points="626,-199.59 630.5,-189.59 626,-194.59 626,-189.59 626,-189.59 626,-189.59 626,-194.59 621.5,-189.59 626,-199.59 626,-199.59"/>
</g>
<!-- ActivityStatus -->
<g id="node6" class="node"><title>ActivityStatus</title>
<ellipse fill="none" stroke="black" cx="831" cy="-443" rx="80.1095" ry="18.3848"/>
<text text-anchor="middle" x="831" y="-439.4" font-family="Times Roman,serif" font-size="14.00">ActivityStatus</text>
</g>
<!-- Project -->
<g id="node7" class="node"><title>Project</title>
<ellipse fill="none" stroke="black" cx="331" cy="-339" rx="45.9619" ry="18.3848"/>
<text text-anchor="middle" x="331" y="-335.4" font-family="Times Roman,serif" font-size="14.00">Project</text>
</g>
<!-- Project&#45;&gt;Activity -->
<g id="edge32" class="edge"><title>Project&#45;&gt;Activity</title>
<path fill="none" stroke="#f04fc2" d="M279.727,-327.99C254.741,-319.764 226.926,-305.7 212,-282 179.466,-230.343 221.129,-159.127 248.894,-121.221"/>
<polygon fill="#f04fc2" stroke="#f04fc2" points="279.925,-328.05 288.179,-335.27 284.708,-329.508 289.491,-330.966 289.491,-330.966 289.491,-330.966 284.708,-329.508 290.803,-326.661 279.925,-328.05 279.925,-328.05"/>
<polygon fill="#f04fc2" stroke="#f04fc2" points="249.241,-120.761 258.852,-115.482 252.249,-116.767 255.258,-112.774 255.258,-112.774 255.258,-112.774 252.249,-116.767 251.664,-110.066 249.241,-120.761 249.241,-120.761"/>
</g>
<!-- Project&#45;&gt;Phase -->
<g id="edge30" class="edge"><title>Project&#45;&gt;Phase</title>
<path fill="none" stroke="#d5d202" d="M278.916,-332.432C240.509,-326.503 192.664,-316.474 179,-302 153.272,-274.747 150.503,-229.486 151.933,-199.948"/>
<ellipse fill="none" stroke="#d5d202" cx="282.997" cy="-333.043" rx="4.00001" ry="4.00001"/>
<polygon fill="#d5d202" stroke="#d5d202" points="151.942,-199.817 157.105,-190.142 152.279,-194.828 152.616,-189.839 152.616,-189.839 152.616,-189.839 152.279,-194.828 148.126,-189.536 151.942,-199.817 151.942,-199.817"/>
</g>
<!-- Report -->
<g id="node8" class="node"><title>Report</title>
<ellipse fill="none" stroke="black" cx="441" cy="-263" rx="43.8406" ry="18.3848"/>
<text text-anchor="middle" x="441" y="-259.4" font-family="Times Roman,serif" font-size="14.00">Report</text>
</g>
<!-- Project&#45;&gt;Report -->
<g id="edge36" class="edge"><title>Project&#45;&gt;Report</title>
<path fill="none" stroke="#1fc5ba" d="M361.219,-318.121C376.23,-307.75 394.355,-295.228 409.532,-284.741"/>
<ellipse fill="none" stroke="#1fc5ba" cx="357.619" cy="-320.609" rx="4.00002" ry="4.00002"/>
<polygon fill="#1fc5ba" stroke="#1fc5ba" points="409.855,-284.518 420.641,-282.536 413.969,-281.676 418.083,-278.834 418.083,-278.834 418.083,-278.834 413.969,-281.676 415.525,-275.132 409.855,-284.518 409.855,-284.518"/>
</g>
<!-- Project&#45;&gt;Document -->
<g id="edge28" class="edge"><title>Project&#45;&gt;Document</title>
<path fill="none" stroke="#087d90" d="M277.632,-333.765C203.669,-325.006 79,-304.141 79,-263 79,-263 79,-263 79,-95 79,-77.3324 87.317,-59.5617 96.1691,-45.6514"/>
<ellipse fill="none" stroke="#087d90" cx="281.974" cy="-334.266" rx="4.00001" ry="4.00001"/>
<polygon fill="#087d90" stroke="#087d90" points="96.3566,-45.3758 105.702,-39.6388 99.169,-41.2417 101.981,-37.1076 101.981,-37.1076 101.981,-37.1076 99.169,-41.2417 98.2607,-34.5764 96.3566,-45.3758 96.3566,-45.3758"/>
</g>
<!-- Project&#45;&gt;Member -->
<g id="edge24" class="edge"><title>Project&#45;&gt;Member</title>
<path fill="none" stroke="#8e8a48" d="M326.537,-312.225C321.409,-281.453 313.025,-231.15 307.77,-199.622"/>
<ellipse fill="none" stroke="#8e8a48" cx="327.239" cy="-316.434" rx="4.00001" ry="4.00001"/>
<polygon fill="#8e8a48" stroke="#8e8a48" points="307.761,-199.568 310.556,-188.964 306.939,-194.636 306.117,-189.704 306.117,-189.704 306.117,-189.704 306.939,-194.636 301.679,-190.444 307.761,-199.568 307.761,-199.568"/>
</g>
<!-- Project&#45;&gt;Event -->
<g id="edge38" class="edge"><title>Project&#45;&gt;Event</title>
<path fill="none" stroke="#36f051" d="M382.853,-331.655C447.895,-320.955 551,-298.41 551,-263 551,-263 551,-263 551,-95 551,-77.6549 545.051,-59.1478 538.958,-44.7395"/>
<ellipse fill="none" stroke="#36f051" cx="378.677" cy="-332.327" rx="4.00001" ry="4.00001"/>
<ellipse fill="#36f051" stroke="#36f051" cx="537.222" cy="-40.8438" rx="4.00002" ry="4.00002"/>
</g>
<!-- Group -->
<g id="node14" class="node"><title>Group</title>
<ellipse fill="none" stroke="black" cx="262" cy="-263" rx="41.2167" ry="18.3848"/>
<text text-anchor="middle" x="262" y="-259.4" font-family="Times Roman,serif" font-size="14.00">Group</text>
</g>
<!-- Project&#45;&gt;Group -->
<g id="edge40" class="edge"><title>Project&#45;&gt;Group</title>
<path fill="none" stroke="#cd346f" d="M309.491,-315.309C301.125,-306.094 291.566,-295.565 283.227,-286.38"/>
<ellipse fill="none" stroke="#cd346f" cx="312.308" cy="-318.412" rx="4.00002" ry="4.00002"/>
<ellipse fill="#cd346f" stroke="#cd346f" cx="280.368" cy="-283.231" rx="4.00002" ry="4.00002"/>
</g>
<!-- Project&#45;&gt;Milestone -->
<g id="edge26" class="edge"><title>Project&#45;&gt;Milestone</title>
<path fill="none" stroke="#b3b14e" d="M344.853,-313.543C355.812,-294.019 371.902,-266.665 388,-244 394.03,-235.51 399.343,-235.75 403,-226 415.554,-192.529 413.826,-150.79 410.62,-123.544"/>
<ellipse fill="none" stroke="#b3b14e" cx="342.86" cy="-317.122" rx="4.00002" ry="4.00002"/>
<polygon fill="#b3b14e" stroke="#b3b14e" points="410.604,-123.428 413.756,-112.924 409.949,-118.471 409.294,-113.514 409.294,-113.514 409.294,-113.514 409.949,-118.471 404.833,-114.103 410.604,-123.428 410.604,-123.428"/>
</g>
<!-- Project&#45;&gt;Attachment -->
<g id="edge34" class="edge"><title>Project&#45;&gt;Attachment</title>
<path fill="none" stroke="#c96449" d="M379.764,-328.486C422.697,-318.124 480.443,-301.103 494,-282 525.011,-238.303 581.074,-201.557 473,-76 455.481,-55.6474 391.365,-39.9011 339.817,-30.1664"/>
<ellipse fill="none" stroke="#c96449" cx="375.826" cy="-329.42" rx="4.00001" ry="4.00001"/>
<polygon fill="#c96449" stroke="#c96449" points="339.526,-30.113 330.508,-23.8746 334.609,-29.2065 329.692,-28.3001 329.692,-28.3001 329.692,-28.3001 334.609,-29.2065 328.876,-32.7255 339.526,-30.113 339.526,-30.113"/>
</g>
<!-- Supervisor -->
<g id="node9" class="node"><title>Supervisor</title>
<ellipse fill="none" stroke="black" cx="331" cy="-443" rx="63.1385" ry="18.3848"/>
<text text-anchor="middle" x="331" y="-439.4" font-family="Times Roman,serif" font-size="14.00">Supervisor</text>
</g>
<!-- Supervisor&#45;&gt;Project -->
<g id="edge42" class="edge"><title>Supervisor&#45;&gt;Project</title>
<path fill="none" stroke="#373b55" d="M331,-415.926C331,-400.511 331,-381.267 331,-365.883"/>
<ellipse fill="none" stroke="#373b55" cx="331" cy="-420.407" rx="4" ry="4"/>
<ellipse fill="#373b55" stroke="#373b55" cx="331" cy="-361.783" rx="4" ry="4"/>
</g>
<!-- Member&#45;&gt;Activity -->
<g id="edge44" class="edge"><title>Member&#45;&gt;Activity</title>
<path fill="none" stroke="#fee87e" d="M291.71,-144.999C288.618,-137.878 285.254,-130.131 282.118,-122.908"/>
<ellipse fill="none" stroke="#fee87e" cx="293.418" cy="-148.933" rx="4.00002" ry="4.00002"/>
<polygon fill="#fee87e" stroke="#fee87e" points="282.012,-122.664 282.157,-111.699 280.021,-118.078 278.029,-113.491 278.029,-113.491 278.029,-113.491 280.021,-118.078 273.902,-115.284 282.012,-122.664 282.012,-122.664"/>
</g>
<!-- Intake -->
<g id="node12" class="node"><title>Intake</title>
<ellipse fill="none" stroke="black" cx="613" cy="-443" rx="41.9273" ry="18.3848"/>
<text text-anchor="middle" x="613" y="-439.4" font-family="Times Roman,serif" font-size="14.00">Intake</text>
</g>
<!-- Intake&#45;&gt;User -->
<g id="edge46" class="edge"><title>Intake&#45;&gt;User</title>
<path fill="none" stroke="#4538e5" d="M608.545,-416.586C605.069,-391.556 601.646,-352.991 607,-320 608.595,-310.17 611.643,-299.745 614.838,-290.535"/>
<ellipse fill="none" stroke="#4538e5" cx="609.131" cy="-420.57" rx="4.00001" ry="4.00001"/>
<polygon fill="#4538e5" stroke="#4538e5" points="614.854,-290.491 622.525,-282.656 616.578,-285.798 618.301,-281.104 618.301,-281.104 618.301,-281.104 616.578,-285.798 614.077,-279.553 614.854,-290.491 614.854,-290.491"/>
</g>
<!-- Subject -->
<g id="node17" class="node"><title>Subject</title>
<ellipse fill="none" stroke="black" cx="664" cy="-339" rx="48.0833" ry="18.3848"/>
<text text-anchor="middle" x="664" y="-335.4" font-family="Times Roman,serif" font-size="14.00">Subject</text>
</g>
<!-- Intake&#45;&gt;Subject -->
<g id="edge48" class="edge"><title>Intake&#45;&gt;Subject</title>
<path fill="none" stroke="#5a4bee" d="M626.338,-415.801C633.76,-400.665 642.978,-381.868 650.437,-366.659"/>
<polygon fill="#5a4bee" stroke="#5a4bee" points="626.287,-415.906 617.843,-422.903 624.085,-420.395 621.884,-424.885 621.884,-424.885 621.884,-424.885 624.085,-420.395 625.924,-426.866 626.287,-415.906 626.287,-415.906"/>
<polygon fill="#5a4bee" stroke="#5a4bee" points="650.644,-366.235 659.088,-359.238 652.846,-361.746 655.047,-357.257 655.047,-357.257 655.047,-357.257 652.846,-361.746 651.007,-355.275 650.644,-366.235 650.644,-366.235"/>
</g>
<!-- Group&#45;&gt;Member -->
<g id="edge50" class="edge"><title>Group&#45;&gt;Member</title>
<path fill="none" stroke="#58d69b" d="M273.472,-237.258C278.817,-225.264 285.186,-210.974 290.638,-198.74"/>
<ellipse fill="none" stroke="#58d69b" cx="271.729" cy="-241.17" rx="4.00002" ry="4.00002"/>
<polygon fill="#58d69b" stroke="#58d69b" points="290.706,-198.587 298.887,-191.285 292.741,-194.02 294.776,-189.453 294.776,-189.453 294.776,-189.453 292.741,-194.02 290.666,-187.622 290.706,-198.587 290.706,-198.587"/>
</g>
<!-- Subject&#45;&gt;User -->
<g id="edge52" class="edge"><title>Subject&#45;&gt;User</title>
<path fill="none" stroke="#95fe31" d="M650.319,-311.638C646.811,-304.622 643.04,-297.08 639.539,-290.078"/>
<polygon fill="#95fe31" stroke="#95fe31" points="650.329,-311.658 650.776,-322.615 652.565,-316.13 654.801,-320.603 654.801,-320.603 654.801,-320.603 652.565,-316.13 658.826,-318.59 650.329,-311.658 650.329,-311.658"/>
<polygon fill="#95fe31" stroke="#95fe31" points="639.455,-289.91 639.008,-278.953 637.219,-285.438 634.983,-280.966 634.983,-280.966 634.983,-280.966 637.219,-285.438 630.958,-282.978 639.455,-289.91 639.455,-289.91"/>
</g>
</g>
</svg>
